<svg width="14" height="14" viewBox="0 0 14 14" fill="none" xmlns="http://www.w3.org/2000/svg">
<path fill-rule="evenodd" clip-rule="evenodd" d="M12.5594 3.77365C12.7302 3.9445 12.7302 4.22151 12.5594 4.39237L7.89269 9.05903C7.72184 9.22989 7.44483 9.22989 7.27397 9.05903L5.25 7.03506L2.05936 10.2257C1.8885 10.3966 1.6115 10.3966 1.44064 10.2257C1.26979 10.0548 1.26979 9.77784 1.44064 9.60698L4.94064 6.10698C5.1115 5.93613 5.3885 5.93613 5.55936 6.10698L7.58333 8.13096L11.9406 3.77365C12.1115 3.60279 12.3885 3.60279 12.5594 3.77365Z" fill="#27A376"/>
<path fill-rule="evenodd" clip-rule="evenodd" d="M7.72917 4.08301C7.72917 3.84138 7.92504 3.64551 8.16667 3.64551H12.25C12.4916 3.64551 12.6875 3.84138 12.6875 4.08301V8.16634C12.6875 8.40797 12.4916 8.60384 12.25 8.60384C12.0084 8.60384 11.8125 8.40797 11.8125 8.16634V4.52051H8.16667C7.92504 4.52051 7.72917 4.32463 7.72917 4.08301Z" fill="#27A376"/>
</svg>
