<svg width="31" height="31" viewBox="0 0 31 31" fill="none" xmlns="http://www.w3.org/2000/svg">
<rect x="0.5" y="0.5" width="30" height="30" rx="8" fill="#E03137"/>
<path fill-rule="evenodd" clip-rule="evenodd" d="M14.168 10C14.1238 10 14.0814 10.0176 14.0501 10.0488C14.0189 10.0801 14.0013 10.1225 14.0013 10.1667V11.6667H17.0013V10.1667C17.0013 10.1225 16.9837 10.0801 16.9525 10.0488C16.9212 10.0176 16.8788 10 16.8346 10H14.168ZM11.378 12.6667L11.9996 20.1251C12.0007 20.139 12.0013 20.1528 12.0013 20.1667C12.0013 20.3877 12.0891 20.5996 12.2454 20.7559C12.4017 20.9122 12.6136 21 12.8346 21H18.168C18.389 21 18.6009 20.9122 18.7572 20.7559C18.9135 20.5996 19.0013 20.3877 19.0013 20.1667C19.0013 20.1528 19.0019 20.139 19.003 20.1251L19.6246 12.6667H11.378ZM20.628 12.6667L20.0012 20.1891C19.9953 20.6672 19.8029 21.1245 19.4643 21.463C19.1205 21.8068 18.6542 22 18.168 22H12.8346C12.3484 22 11.8821 21.8068 11.5383 21.463C11.1997 21.1245 11.0073 20.6672 11.0014 20.1891L10.3746 12.6667H10.168C9.89183 12.6667 9.66797 12.4428 9.66797 12.1667C9.66797 11.8905 9.89183 11.6667 10.168 11.6667H13.0013V10.1667C13.0013 9.85725 13.1242 9.5605 13.343 9.34171C13.5618 9.12292 13.8585 9 14.168 9H16.8346C17.1441 9 17.4408 9.12292 17.6596 9.34171C17.8784 9.5605 18.0013 9.85725 18.0013 10.1667V11.6667H20.8346C21.1108 11.6667 21.3346 11.8905 21.3346 12.1667C21.3346 12.4428 21.1108 12.6667 20.8346 12.6667H20.628ZM14.168 14.3333C14.4441 14.3333 14.668 14.5572 14.668 14.8333V18.8333C14.668 19.1095 14.4441 19.3333 14.168 19.3333C13.8918 19.3333 13.668 19.1095 13.668 18.8333V14.8333C13.668 14.5572 13.8918 14.3333 14.168 14.3333ZM16.8346 14.3333C17.1108 14.3333 17.3346 14.5572 17.3346 14.8333V18.8333C17.3346 19.1095 17.1108 19.3333 16.8346 19.3333C16.5585 19.3333 16.3346 19.1095 16.3346 18.8333V14.8333C16.3346 14.5572 16.5585 14.3333 16.8346 14.3333Z" fill="white"/>
</svg>
