                     <svg width="31" height="31" viewBox="0 0 31 31" fill="none" xmlns="http://www.w3.org/2000/svg">
<rect x="0.5" y="0.5" width="30" height="30" rx="8" fill="#2F78EE"/>
<path fill-rule="evenodd" clip-rule="evenodd" d="M16.832 9C17.1082 9 17.332 9.22386 17.332 9.5V12.1667C17.332 12.2109 17.3496 12.2533 17.3808 12.2845C17.4121 12.3158 17.4545 12.3333 17.4987 12.3333H20.1654C20.4415 12.3333 20.6654 12.5572 20.6654 12.8333C20.6654 13.1095 20.4415 13.3333 20.1654 13.3333H17.4987C17.1893 13.3333 16.8925 13.2104 16.6737 12.9916C16.4549 12.7728 16.332 12.4761 16.332 12.1667V9.5C16.332 9.22386 16.5559 9 16.832 9Z" fill="white"/>
<path fill-rule="evenodd" clip-rule="evenodd" d="M12.1654 10C11.9444 10 11.7324 10.0878 11.5761 10.2441C11.4198 10.4004 11.332 10.6123 11.332 10.8333V20.1667C11.332 20.3877 11.4198 20.5996 11.5761 20.7559C11.7324 20.9122 11.9444 21 12.1654 21H18.832C19.053 21 19.265 20.9122 19.4213 20.7559C19.5776 20.5996 19.6654 20.3877 19.6654 20.1667V13.0404L16.6249 10H12.1654ZM10.869 9.53697C11.2128 9.19315 11.6791 9 12.1654 9H16.832C16.9646 9 17.0918 9.05268 17.1856 9.14645L20.5189 12.4798C20.6127 12.5735 20.6654 12.7007 20.6654 12.8333V20.1667C20.6654 20.6529 20.4722 21.1192 20.1284 21.463C19.7846 21.8068 19.3183 22 18.832 22H12.1654C11.6791 22 11.2128 21.8068 10.869 21.463C10.5252 21.1192 10.332 20.6529 10.332 20.1667V10.8333C10.332 10.3471 10.5252 9.88079 10.869 9.53697Z" fill="white"/>
<path fill-rule="evenodd" clip-rule="evenodd" d="M15.4987 14.3333C15.7748 14.3333 15.9987 14.5572 15.9987 14.8333V18.8333C15.9987 19.1095 15.7748 19.3333 15.4987 19.3333C15.2226 19.3333 14.9987 19.1095 14.9987 18.8333V14.8333C14.9987 14.5572 15.2226 14.3333 15.4987 14.3333Z" fill="white"/>
<path fill-rule="evenodd" clip-rule="evenodd" d="M13.1451 16.4798C13.3404 16.2845 13.657 16.2845 13.8523 16.4798L15.4987 18.1262L17.1451 16.4798C17.3404 16.2845 17.657 16.2845 17.8523 16.4798C18.0475 16.675 18.0475 16.9916 17.8523 17.1869L15.8523 19.1869C15.657 19.3821 15.3404 19.3821 15.1451 19.1869L13.1451 17.1869C12.9499 16.9916 12.9499 16.675 13.1451 16.4798Z" fill="white"/>
</svg>
